<?xml version="1.0" encoding="UTF-8" standalone="no"?>
<!-- Created with Inkscape (http://www.inkscape.org/) -->

<svg
   xmlns:dc="http://purl.org/dc/elements/1.1/"
   xmlns:cc="http://creativecommons.org/ns#"
   xmlns:rdf="http://www.w3.org/1999/02/22-rdf-syntax-ns#"
   xmlns:svg="http://www.w3.org/2000/svg"
   xmlns="http://www.w3.org/2000/svg"
   xmlns:xlink="http://www.w3.org/1999/xlink"
   xmlns:sodipodi="http://sodipodi.sourceforge.net/DTD/sodipodi-0.dtd"
   xmlns:inkscape="http://www.inkscape.org/namespaces/inkscape"
   width="210mm"
   height="297mm"
   id="svg5225"
   sodipodi:version="0.32"
   inkscape:version="0.48.2 r9819"
   sodipodi:docname="LogoEcoleTransparent.svg"
   inkscape:output_extension="org.inkscape.output.svg.inkscape"
   version="1.1">
  <defs
     id="defs5227">
    <clipPath
       id="SVGID_124_">
      <use
         xlink:href="#SVGID_123_"
         overflow="visible"
         id="use1431"
         style="overflow:visible"
         x="0"
         y="0"
         width="1190.551"
         height="841.89001" />
    </clipPath>
    <inkscape:perspective
       sodipodi:type="inkscape:persp3d"
       inkscape:vp_x="0 : 526.18109 : 1"
       inkscape:vp_y="0 : 1000 : 0"
       inkscape:vp_z="744.09448 : 526.18109 : 1"
       inkscape:persp3d-origin="372.04724 : 350.78739 : 1"
       id="perspective5233" />
  </defs>
  <sodipodi:namedview
     id="base"
     pagecolor="#ffffff"
     bordercolor="#666666"
     borderopacity="1.0"
     inkscape:pageopacity="0.0"
     inkscape:pageshadow="2"
     inkscape:zoom="2.8284271"
     inkscape:cx="361.17736"
     inkscape:cy="686.42937"
     inkscape:document-units="px"
     inkscape:current-layer="g1425"
     showgrid="false"
     inkscape:window-width="1438"
     inkscape:window-height="846"
     inkscape:window-x="0"
     inkscape:window-y="24"
     inkscape:window-maximized="0" />
  <metadata
     id="metadata5230">
    <rdf:RDF>
      <cc:Work
         rdf:about="">
        <dc:format>image/svg+xml</dc:format>
        <dc:type
           rdf:resource="http://purl.org/dc/dcmitype/StillImage" />
        <dc:title></dc:title>
      </cc:Work>
    </rdf:RDF>
  </metadata>
  <g
     inkscape:label="Calque 1"
     inkscape:groupmode="layer"
     id="layer1">
    <g
       id="g1425"
       transform="translate(-196.73043,42.518611)">
      <defs
         id="defs1427">
        <rect
           id="SVGID_123_"
           x="-299.44"
           y="0.94999999"
           width="1190.879"
           height="841.87903" />
      </defs>
      <clipPath
         id="clipPath5240">
        <use
           xlink:href="#SVGID_123_"
           overflow="visible"
           id="use5242"
           style="overflow:visible"
           x="0"
           y="0"
           width="1190.551"
           height="841.89001" />
      </clipPath>
      <polygon
         clip-path="url(#SVGID_124_)"
         points="624.773,366.91 624.773,369.485 611.191,369.485 611.191,357.165 624.773,357.165 624.773,359.742 615.539,359.742 615.539,362.003 623.148,362.003 623.148,364.482 615.539,364.482 615.539,366.91 624.773,366.91 "
         id="polygon1435"
         style="fill:#a08784;fill-opacity:1" />
      <polygon
         clip-path="url(#SVGID_124_)"
         points="480.307,363.328 480.307,368.204 484.924,368.204 484.924,369.491 478.133,369.491 478.133,363.328 480.307,363.328 "
         id="polygon1437"
         style="fill:#c4bab7;fill-opacity:1" />
      <path
         clip-path="url(#SVGID_124_)"
         d="M 468.963,364.824 L 468.289,365.16 L 467.871,365.785 L 467.871,367.031 L 468.289,367.655 L 468.963,368.001 L 470.092,368.199 L 470.25,368.199 L 471.381,368.001 L 472.053,367.655 L 472.469,367.031 L 472.469,365.785 L 472.053,365.16 L 471.381,364.824 L 470.25,364.615 L 470.092,364.615 L 468.963,364.824 z M 466.891,368.991 L 466.633,368.864 L 465.643,367.725 L 465.643,365.092 L 466.633,363.951 L 466.891,363.824 L 468.942,363.216 L 471.421,363.216 L 473.45,363.824 L 473.708,363.951 L 474.698,365.092 L 474.698,367.725 L 473.708,368.864 L 473.45,368.991 L 471.421,369.599 L 468.942,369.599 L 466.891,368.991"
         id="path1439"
         style="fill:#c4bab7;fill-opacity:1" />
      <polygon
         clip-path="url(#SVGID_124_)"
         points="556.814,368.738 552.523,368.738 552.523,367.788 548.861,364.239 547.486,364.239 547.486,369.484 543.123,369.484 543.123,357.165 546.033,357.165 547.5,357.917 553.063,363.468 553.063,364.279 554.355,364.954 554.855,364.954 556.148,364.279 556.148,363.468 561.711,357.917 563.178,357.165 566.088,357.165 566.088,369.484 561.723,369.484 561.723,364.239 560.35,364.239 556.814,367.788 556.814,368.738 "
         id="polygon1441"
         style="fill:#a08784;fill-opacity:1" />
      <rect
         x="573.58197"
         y="357.16599"
         clip-path="url(#SVGID_124_)"
         width="4.3460002"
         height="12.319"
         id="rect1443"
         style="fill:#a08784;fill-opacity:1" />
      <polygon
         clip-path="url(#SVGID_124_)"
         points="589.994,369.485 585.404,369.485 585.404,357.165 589.994,357.165 589.994,358.296 591.697,359.742 598.08,363.27 599.229,363.27 599.229,357.165 603.818,357.165 603.818,369.485 599.229,369.485 599.229,368.283 597.564,366.856 591.145,363.309 589.994,363.309 589.994,369.485 "
         id="polygon1445"
         style="fill:#a08784;fill-opacity:1" />
      <polygon
         clip-path="url(#SVGID_124_)"
         points="589.994,391.139 585.404,391.139 585.404,378.817 589.994,378.817 589.994,379.948 591.697,381.394 598.08,384.922 599.229,384.922 599.229,378.817 603.818,378.817 603.818,391.139 599.229,391.139 599.229,389.935 597.564,388.508 591.145,384.961 589.994,384.961 589.994,391.139 "
         id="polygon1447"
         style="fill:#a08784;fill-opacity:1" />
      <polygon
         clip-path="url(#SVGID_124_)"
         points="639.902,391.139 635.314,391.139 635.314,378.817 639.902,378.817 639.902,379.948 641.605,381.394 647.988,384.922 649.139,384.922 649.139,378.817 653.725,378.817 653.725,391.139 649.139,391.139 649.139,389.935 647.473,388.508 641.053,384.961 639.902,384.961 639.902,391.139 "
         id="polygon1449"
         style="fill:#a08784;fill-opacity:1" />
      <polygon
         clip-path="url(#SVGID_124_)"
         points="687.307,378.817 687.307,379.538 690.477,382.452 690.477,383.62 691.73,384.274 692.457,384.274 693.748,383.62 693.748,382.452 696.879,379.538 696.879,378.817 701.082,378.817 701.082,380.41 694.51,386.951 694.51,391.137 689.715,391.137 689.715,386.951 683.055,380.41 683.055,378.817 687.307,378.817 "
         id="polygon1451"
         style="fill:#a08784;fill-opacity:1" />
      <polygon
         clip-path="url(#SVGID_124_)"
         points="454.754,363.949 455.012,363.82 457.006,363.214 459.643,363.214 461.684,363.82 462.324,364.309 462.482,364.558 462.482,365.527 461.248,365.527 460.754,365.337 460.217,365.069 459.068,364.781 458.156,364.781 457.027,364.99 456.354,365.327 455.938,365.949 455.938,366.86 456.354,367.483 457.027,367.83 458.156,368.029 459.068,368.029 460.217,367.743 460.754,367.483 461.248,367.283 462.482,367.283 462.482,368.254 462.324,368.501 461.684,368.99 459.643,369.598 457.006,369.598 455.012,368.99 454.754,368.86 453.762,367.598 453.762,365.211 454.754,363.949 "
         id="polygon1453"
         style="fill:#c4bab7;fill-opacity:1" />
      <path
         clip-path="url(#SVGID_124_)"
         clip-rule="evenodd"
         d="M 511.482,366.924 L 511.064,367.549 L 510.39,367.896 L 509.261,368.092 L 509.103,368.092 L 509.046,368.092 L 506.513,368.117 L 506.513,364.709 L 509.046,364.734 L 509.103,364.734 L 509.261,364.734 L 510.39,364.941 L 511.064,365.278 L 511.482,365.902 L 511.482,366.924 z M 512.738,364.18 L 512.48,363.942 L 510.449,363.328 L 504.357,363.328 L 504.357,369.493 L 510.449,369.493 L 512.48,368.887 L 512.738,368.647 L 513.617,367.395 L 513.617,365.433 L 512.738,364.18"
         id="path1455"
         style="fill:#c4bab7;fill-rule:evenodd;fill-opacity:1" />
      <polygon
         clip-path="url(#SVGID_124_)"
         points="662.623,380.074 663.139,379.817 667.129,378.602 672.4,378.602 676.484,379.817 677.766,380.795 678.082,381.291 678.082,383.232 675.611,383.232 674.621,382.85 673.549,382.313 671.252,381.74 669.428,381.74 667.17,382.156 665.82,382.829 664.988,384.076 664.988,385.896 665.82,387.144 667.17,387.838 669.428,388.235 671.252,388.235 673.549,387.661 674.621,387.144 675.611,386.741 678.082,386.741 678.082,388.684 677.766,389.179 676.484,390.156 672.4,391.372 667.129,391.372 663.139,390.156 662.623,389.898 660.641,387.374 660.641,382.599 662.623,380.074 "
         id="polygon1457"
         style="fill:#a08784;fill-opacity:1" />
      <polygon
         clip-path="url(#SVGID_124_)"
         points="646.521,359.733 639.254,359.733 638.439,360.101 637.781,360.517 646.521,365.965 646.521,366.699 644.121,368.249 640.246,369.48 631.686,369.48 631.686,366.897 638.955,366.897 639.768,366.479 640.426,366.063 631.686,360.615 631.686,359.856 634.088,358.331 637.961,357.1 646.521,357.1 646.521,359.733 "
         id="polygon1459"
         style="fill:#a08784;fill-opacity:1" />
      <polygon
         clip-path="url(#SVGID_124_)"
         points="534.449,364.617 530.814,364.617 530.408,364.801 530.08,365.01 534.449,367.734 534.449,368.101 533.248,368.876 531.313,369.49 527.031,369.49 527.031,368.199 530.666,368.199 531.072,367.99 531.4,367.783 527.031,365.058 527.031,364.68 528.232,363.917 530.17,363.328 534.449,363.328 534.449,364.617 "
         id="polygon1461"
         style="fill:#c4bab7;fill-opacity:1" />
      <path
         clip-path="url(#SVGID_124_)"
         clip-rule="evenodd"
         d="M 564.5,388.566 L 564.082,389.191 L 563.41,389.538 L 562.279,389.737 L 562.121,389.737 L 562.064,389.737 L 559.531,389.76 L 559.531,386.351 L 562.064,386.376 L 562.121,386.376 L 562.279,386.376 L 563.41,386.585 L 564.082,386.921 L 564.5,387.544 L 564.5,388.566 z M 565.754,385.825 L 565.498,385.584 L 563.467,384.976 L 557.375,384.976 L 557.375,391.137 L 563.467,391.137 L 565.498,390.529 L 565.754,390.289 L 566.635,389.037 L 566.635,387.075 L 565.754,385.825"
         id="path1463"
         style="fill:#c4bab7;fill-rule:evenodd;fill-opacity:1" />
      <path
         clip-path="url(#SVGID_124_)"
         d="M 614.615,388.132 L 624.314,388.132 L 625.886,390.054 L 625.886,391.137 L 629.712,391.137 L 629.712,389.241 L 621.765,379.712 L 621.765,378.826 L 617.185,378.826 L 617.185,379.712 L 609.206,389.241 L 609.206,391.137 L 613.032,391.137 L 613.032,390.054 L 614.615,388.132 z M 622.268,385.636 L 616.674,385.636 L 618.117,383.887 L 618.117,383.128 L 619.113,382.499 L 619.838,382.499 L 620.834,383.128 L 620.834,383.887 L 622.268,385.636"
         id="path1465"
         style="fill:#a08784;fill-opacity:1" />
      <polygon
         clip-path="url(#SVGID_124_)"
         points="450.309,368.198 450.309,369.486 443.518,369.486 443.518,363.325 450.309,363.325 450.309,364.613 445.691,364.613 445.691,365.743 449.496,365.743 449.496,366.982 445.691,366.982 445.691,368.198 450.309,368.198 "
         id="polygon1467"
         style="fill:#c4bab7;fill-opacity:1" />
      <polygon
         clip-path="url(#SVGID_124_)"
         points="494.475,368.203 494.475,369.491 487.684,369.491 487.684,363.328 494.475,363.328 494.475,364.617 489.857,364.617 489.857,365.75 493.662,365.75 493.662,366.989 489.857,366.989 489.857,368.203 494.475,368.203 "
         id="polygon1469"
         style="fill:#c4bab7;fill-opacity:1" />
      <polygon
         clip-path="url(#SVGID_124_)"
         points="523.502,368.203 523.502,369.49 516.711,369.49 516.711,363.328 523.502,363.328 523.502,364.617 518.885,364.617 518.885,365.75 522.689,365.75 522.689,366.989 518.885,366.989 518.885,368.203 523.502,368.203 "
         id="polygon1471"
         style="fill:#c4bab7;fill-opacity:1" />
      <polygon
         clip-path="url(#SVGID_124_)"
         points="576.576,389.852 576.576,391.139 569.785,391.139 569.785,384.979 576.576,384.979 576.576,386.268 571.959,386.268 571.959,387.398 575.764,387.398 575.764,388.637 571.959,388.637 571.959,389.852 576.576,389.852 "
         id="polygon1473"
         style="fill:#c4bab7;fill-opacity:1" />
      <path
         clip-path="url(#SVGID_124_)"
         clip-rule="evenodd"
         d="M 672.553,334.143 C 676.487,332.221 680.073,330.139 683.375,327.897 C 683.6,332.536 682.434,337.14 680.051,341.641 C 677.363,339.346 674.826,336.952 672.553,334.143 z M 663.506,302.399 C 672.57,306.979 677.649,312.314 680.094,316.759 C 681.196,318.763 682.012,320.771 682.559,322.78 C 678.782,325.633 674.621,328.266 670.049,330.697 C 667.031,326.034 664.682,320.22 663.369,312.261 C 662.805,308.851 662.975,305.479 663.506,302.399 M 721.285,360.84 C 711.314,358.648 693.992,352.997 685.082,345.781 C 684.668,345.446 684.258,345.112 683.848,344.781 C 686.846,338.863 688.877,331.687 687.828,324.651 C 696.051,318.195 702.398,310.541 708.019,301.549 C 714.347,291.431 717.833,279.943 719.689,268.256 C 728.558,267.215 736.962,267.101 736.962,267.101 C 736.962,267.101 729.401,266.631 719.8,267.543 C 720.98,259.835 721.468,252.05 721.607,244.521 L 714.732,249.999 C 714.56,256.302 714.08,262.409 713.148,268.378 C 709.316,268.984 705.371,269.842 701.599,271.047 C 681.408,277.509 674.345,290.443 674.345,290.443 C 674.345,290.443 685.068,276.595 707.868,270.376 C 709.464,269.94 711.204,269.562 713.011,269.235 C 712.029,275.237 710.581,281.103 708.519,286.89 C 703.83,300.061 696.742,310.805 686.499,319.608 C 685.792,317.779 684.837,315.983 683.587,314.249 C 678.689,307.458 671.759,302.614 664.21,299.164 C 665.821,293.028 668.499,288.684 668.499,288.684 C 668.499,288.684 665.31,292.493 662.829,298.553 C 651.491,293.667 638.972,291.793 629.929,291.113 C 623.447,290.626 593.741,288.406 559.308,303.435 C 566.47,300.384 597.074,288.628 633.009,293.644 C 645.222,295.348 654.611,298.208 661.739,301.542 C 661.335,302.802 660.973,304.129 660.684,305.52 C 659.166,312.865 660.737,323.44 665.893,332.77 C 646.752,341.573 624.78,340.943 611.028,338.871 C 602.385,337.569 595.79,335.538 590.952,333.494 C 595.473,336.098 601.145,338.56 608.071,340.19 C 622.178,343.511 644.86,345.557 665.342,337.341 C 666.25,336.976 667.137,336.602 668.014,336.226 C 669.422,338.299 671.022,340.278 672.827,342.101 C 674.317,343.603 675.755,344.973 677.155,346.23 C 674.637,349.683 671.659,352.786 669.557,354.819 L 672.723,359.187 C 673.686,358.167 674.965,356.83 676.541,355.225 C 677.996,353.743 679.57,351.808 681.072,349.545 C 687.152,354.366 692.588,357.164 698.258,359.528 C 705.481,362.54 715.569,365.942 727.227,367.775 L 733.649,363.06 C 729.766,362.462 725.102,361.681 721.285,360.84"
         id="path1475"
         style="fill:#c4bab7;fill-rule:evenodd;fill-opacity:1" />
    </g>
  </g>
</svg>
